<?xml version="1.0" encoding="UTF-8" standalone="no"?>
<svg
   xmlns:dc="http://purl.org/dc/elements/1.1/"
   xmlns:cc="http://creativecommons.org/ns#"
   xmlns:rdf="http://www.w3.org/1999/02/22-rdf-syntax-ns#"
   xmlns:svg="http://www.w3.org/2000/svg"
   xmlns="http://www.w3.org/2000/svg"
   xmlns:sodipodi="http://sodipodi.sourceforge.net/DTD/sodipodi-0.dtd"
   xmlns:inkscape="http://www.inkscape.org/namespaces/inkscape"
   inkscape:version="1.0 (4035a4fb49, 2020-05-01)"
   sodipodi:docname="LI-Bug.svg.original.svg"
   version="1.1"
   viewBox="0 0 64 64.000003"
   height="64"
   width="64"
   data-name="Group 1282"
   id="Group_1282">
  <metadata
     id="metadata10">
    <rdf:RDF>
      <cc:Work
         rdf:about="">
        <dc:format>image/svg+xml</dc:format>
        <dc:type
           rdf:resource="http://purl.org/dc/dcmitype/StillImage" />
      </cc:Work>
    </rdf:RDF>
  </metadata>
  <defs
     id="defs8" />
  <sodipodi:namedview
     inkscape:current-layer="Group_1282"
     inkscape:window-maximized="1"
     inkscape:window-y="27"
     inkscape:window-x="0"
     inkscape:cy="19.602758"
     inkscape:cx="30.183077"
     inkscape:zoom="6.7832391"
     showgrid="false"
     id="namedview6"
     inkscape:window-height="973"
     inkscape:window-width="1920"
     inkscape:pageshadow="2"
     inkscape:pageopacity="0"
     guidetolerance="10"
     gridtolerance="10"
     objecttolerance="10"
     borderopacity="1"
     bordercolor="#666666"
     pagecolor="#ffffff" />
  <path
     id="path12"
     d="M 2.5470912,63.437526 C 1.3684461,62.829156 0.51223578,61.803581 0.17781991,60.599603 0.06200715,60.182648 0.00248782,50.489566 0.00185473,31.942878 7.8967641e-4,0.68628481 -0.09307995,3.0520802 1.2067596,1.5754547 1.5902691,1.1397857 2.2571996,0.64511482 2.7788762,0.4093951 L 3.6849174,0 H 32.043287 C 58.596216,0 60.443528,0.01893523 61.059331,0.29741885 62.180307,0.80435571 63.014939,1.5922994 63.519714,2.620169 L 64,3.5981716 V 32.040861 c 0,26.869893 -0.01679,28.478431 -0.303756,29.089038 -0.418747,0.891029 -1.420974,1.961072 -2.254801,2.407372 l -0.697086,0.37311 -28.553774,0.04481 -28.5537725,0.04481 z M 19.020712,39.322875 V 23.90214 H 14.222922 9.4251314 V 39.322875 54.74361 h 4.7977906 4.79779 z m 15.468749,6.553813 c 0.0704,-7.395669 0.130224,-9.045506 0.360534,-9.943202 0.738042,-2.876727 2.330143,-4.178988 5.155049,-4.21658 2.322414,-0.0309 3.73229,0.909077 4.459202,2.973001 0.478021,1.357251 0.59562,3.706247 0.598647,11.957817 l 0.003,8.095886 h 4.797791 4.79779 v -9.813794 c 0,-11.946222 -0.143221,-13.485711 -1.53381,-16.487127 -1.223694,-2.641187 -3.448644,-4.350307 -6.475398,-4.974147 -1.67182,-0.344577 -5.151973,-0.347391 -6.429879,-0.0052 -2.105582,0.563824 -4.095237,1.887726 -5.354511,3.562851 l -0.768362,1.02209 v -2.073076 -2.073075 h -4.626441 -4.62644 v 15.420784 15.420735 h 4.779225 4.779227 z M 16.205756,19.503565 c 1.208512,-0.409848 2.826507,-2.054328 3.236175,-3.289148 C 20.391618,13.351881 19.176852,10.457501 16.473793,9.1423374 15.846431,8.8370969 15.373143,8.7539952 14.222922,8.7471212 12.967827,8.7396216 12.632794,8.80405 11.79978,9.2131129 8.6495592,10.76007 7.6625252,14.542541 9.6378257,17.498069 c 0.5856873,0.876332 1.8520863,1.841358 2.7627433,2.105273 0.902634,0.261592 2.893562,0.209388 3.805187,-0.09978 z"
     style="fill:#ffffff;stroke-width:0.171345" />
</svg>
