<?xml version="1.0" encoding="UTF-8" standalone="no"?>
<svg
   xmlns:dc="http://purl.org/dc/elements/1.1/"
   xmlns:cc="http://creativecommons.org/ns#"
   xmlns:rdf="http://www.w3.org/1999/02/22-rdf-syntax-ns#"
   xmlns:svg="http://www.w3.org/2000/svg"
   xmlns="http://www.w3.org/2000/svg"
   xmlns:sodipodi="http://sodipodi.sourceforge.net/DTD/sodipodi-0.dtd"
   xmlns:inkscape="http://www.inkscape.org/namespaces/inkscape"
   inkscape:version="1.0 (4035a4fb49, 2020-05-01)"
   sodipodi:docname="rss.svg"
   viewBox="0 0 64 64"
   id="RSSicon"
   height="32"
   width="32"
   version="1.1">
  <metadata
     id="metadata34">
    <rdf:RDF>
      <cc:Work
         rdf:about="">
        <dc:format>image/svg+xml</dc:format>
        <dc:type
           rdf:resource="http://purl.org/dc/dcmitype/StillImage" />
      </cc:Work>
    </rdf:RDF>
  </metadata>
  <sodipodi:namedview
     inkscape:current-layer="RSSicon"
     inkscape:window-maximized="1"
     inkscape:window-y="27"
     inkscape:window-x="0"
     inkscape:cy="44.420348"
     inkscape:cx="18.332553"
     inkscape:zoom="4.0080768"
     showgrid="false"
     id="namedview32"
     inkscape:window-height="973"
     inkscape:window-width="1920"
     inkscape:pageshadow="2"
     inkscape:pageopacity="0"
     guidetolerance="10"
     gridtolerance="10"
     objecttolerance="10"
     borderopacity="1"
     bordercolor="#666666"
     pagecolor="#ffffff" />
  <defs
     id="defs17">
    <linearGradient
       id="RSSg"
       y2="0.91500002"
       x2="0.91500002"
       y1="0.085000001"
       x1="0.085000001">
      <stop
         id="stop2"
         stop-color="#E3702D"
         offset="0.0" />
      <stop
         id="stop4"
         stop-color="#EA7D31"
         offset="0.1071" />
      <stop
         id="stop6"
         stop-color="#F69537"
         offset="0.3503" />
      <stop
         id="stop8"
         stop-color="#FB9E3A"
         offset="0.5" />
      <stop
         id="stop10"
         stop-color="#EA7C31"
         offset="0.7016" />
      <stop
         id="stop12"
         stop-color="#DE642B"
         offset="0.8866" />
      <stop
         id="stop14"
         stop-color="#D95B29"
         offset="1.0" />
    </linearGradient>
  </defs>
  <path
     d="M 13.748045,0 C 6.1318475,0 0,6.131847 0,13.748046 v 36.50391 C 0,57.868155 6.1318475,64 13.748045,64 h 36.50391 C 57.868155,64 64,57.868155 64,50.251956 V 13.748046 C 64,6.131847 57.868155,0 50.251955,0 Z m -2.602538,9.5458979 2.035155,0.104492 c 9.27287,0.4732581 18.011453,3.8250131 25.294923,9.7021481 1.999935,1.613775 5.418495,5.082521 6.923827,7.025391 5.511398,7.113345 8.708523,15.678094 9.208008,24.667972 l 0.116215,2.081054 h -4.34473 -4.34375 v -1.1543 c 0,-2.698382 -0.76154,-6.838064 -1.850585,-10.060547 C 39.94365,29.363259 28.769382,20.214561 15.581053,18.493163 14.502672,18.352408 13.06347,18.237304 12.382813,18.237304 h -1.237305 v -4.345703 z m 0,14.7890641 1.786133,0.09765 c 10.040682,0.55001 19.333298,6.754157 23.941405,15.984374 1.788582,3.5826 3.000025,8.310707 3.01172,11.754884 l 0.0029,0.95508 H 35.767547 31.64743 L 31.456022,51.25781 C 30.600075,42.913466 25.09451,36.132649 17.13476,33.618164 15.603982,33.134591 13.12591,32.693391 11.934565,32.692384 l -0.789063,-10e-4 v -4.17871 z m 5.85449,16.929686 a 6,5.9999998 0 0 1 6,6 6,5.9999998 0 0 1 -6,6.000002 A 6,5.9999998 0 0 1 11,47.264648 a 6,5.9999998 0 0 1 5.999997,-6 z"
     style="fill:#ffffff;stroke-width:1"
     id="rect54" />
</svg>
