<?xml version="1.0" encoding="UTF-8" standalone="no"?>
<svg
   xmlns:dc="http://purl.org/dc/elements/1.1/"
   xmlns:cc="http://creativecommons.org/ns#"
   xmlns:rdf="http://www.w3.org/1999/02/22-rdf-syntax-ns#"
   xmlns:svg="http://www.w3.org/2000/svg"
   xmlns="http://www.w3.org/2000/svg"
   id="svg8"
   version="1.1"
   viewBox="0 0 48 48.000004"
   height="48.000004mm"
   width="48mm">
  <defs
     id="defs2" />
  <g
     transform="translate(-49.132561,-52.784341)"
     id="layer1">
    <path
       d="m 73.393326,52.784385 c -1.622171,-0.01764 -6.053485,5.220557 -7.558927,5.825043 -1.505442,0.604486 -8.32819,-0.114564 -9.48771,1.020015 -1.159519,1.13458 -0.588939,7.971866 -1.22601,9.46381 -0.637071,1.491944 -5.970439,5.808149 -5.988074,7.430322 -0.01764,1.622174 5.220553,6.053483 5.825043,7.558928 0.604486,1.505439 -0.114566,8.32819 1.020015,9.487708 1.13458,1.159517 7.971299,0.588939 9.463241,1.226011 1.491943,0.637072 5.808149,5.970448 7.430322,5.988078 1.622174,0.0176 6.05349,-5.220561 7.55893,-5.825044 1.50545,-0.604482 8.328763,0.114561 9.488275,-1.020015 1.159528,-1.134582 0.588934,-7.971868 1.226011,-9.463813 0.637061,-1.491944 5.970444,-5.808145 5.988074,-7.430322 0.01762,-1.622171 -5.220557,-6.053486 -5.82504,-7.558926 -0.604493,-1.505443 0.114572,-8.328189 -1.020021,-9.48771 -1.13457,-1.159519 -7.971867,-0.58894 -9.463807,-1.226011 -1.491944,-0.637071 -5.808149,-5.97044 -7.430322,-5.988074 z m -0.03784,3.477442 c 1.387128,0.01508 5.078197,4.575515 6.353971,5.120279 1.275768,0.544764 7.12222,0.05695 8.092408,1.048468 0.970193,0.991516 0.355441,6.825863 0.872348,8.113178 0.516907,1.287313 4.995951,5.076382 4.980865,6.463512 -0.01509,1.387136 -4.575518,5.078197 -5.120279,6.353971 -0.544766,1.275774 -0.05695,7.122226 -1.04847,8.092408 -0.991506,0.970193 -6.826142,0.355452 -8.113462,0.872348 -1.287314,0.516901 -5.076675,4.995945 -6.463799,4.980865 -1.387134,-0.01509 -5.077912,-4.575518 -6.353686,-5.120279 -1.27577,-0.544766 -7.121936,-0.05696 -8.092124,-1.04847 -0.97019,-0.991511 -0.355447,-6.825861 -0.872348,-8.113175 -0.516903,-1.28732 -4.995944,-5.07638 -4.980863,-6.463514 0.01508,-1.387132 4.575516,-5.0782 5.120279,-6.353972 0.544765,-1.275774 0.05695,-7.12222 1.048469,-8.092408 0.991514,-0.970187 6.825864,-0.355447 8.113178,-0.872348 1.287318,-0.516901 5.076377,-4.995943 6.463513,-4.980863 z"
       style="fill:#ffffff;fill-opacity:1;stroke:none;stroke-width:0;stroke-linecap:square;stroke-linejoin:round;stroke-miterlimit:4;stroke-dasharray:none;stroke-opacity:1;paint-order:markers fill stroke"
       id="path869" />
    <path
       d="m 73.877435,63.366196 a 13.418135,13.418135 0 0 0 -0.05254,5.5e-4 V 90.20193 a 13.418135,13.418135 0 0 0 0.05254,5.5e-4 13.418135,13.418135 0 0 0 13.418136,-13.418134 13.418135,13.418135 0 0 0 -13.418136,-13.41815 z"
       style="fill:none;fill-opacity:1;stroke:#ffffff;stroke-width:2.33081;stroke-linecap:square;stroke-linejoin:round;stroke-miterlimit:4;stroke-dasharray:none;stroke-opacity:1;paint-order:markers fill stroke"
       id="path897" />
  </g>
</svg>
