<?xml version="1.0" encoding="UTF-8"?>
<svg width="32" height="32" version="1.1" viewBox="0 0 32 32" xml:space="preserve" xmlns="http://www.w3.org/2000/svg" xmlns:cc="http://creativecommons.org/ns#" xmlns:dc="http://purl.org/dc/elements/1.1/" xmlns:rdf="http://www.w3.org/1999/02/22-rdf-syntax-ns#"><metadata><rdf:RDF><cc:Work rdf:about=""><dc:format>image/svg+xml</dc:format><dc:type rdf:resource="http://purl.org/dc/dcmitype/StillImage"/><dc:title/></cc:Work></rdf:RDF></metadata><g transform="matrix(1.3333 0 0 -1.3333 -240.13 514.4)"><g transform="scale(.1)"><path d="m1921 3858c-66.266 0-120-55.083-120-123.04 0-54.362 34.384-100.48 82.064-116.75 5.9973-1.1387 8.199 2.6695 8.199 5.9193 0 2.934-0.1112 12.626-0.1629 22.907-33.384-7.4429-40.429 14.517-40.429 14.517-5.4587 14.222-13.324 18.003-13.324 18.003-10.888 7.6365 0.8207 7.4796 0.8207 7.4796 12.05-0.8659 18.395-12.679 18.395-12.679 10.703-18.81 28.073-13.372 34.92-10.228 1.0771 7.9503 4.187 13.382 7.6188 16.453-26.654 3.1112-54.673 13.661-54.673 60.806 0 13.433 4.6877 24.409 12.364 33.026-1.246 3.101-5.3535 15.613 1.1625 32.561 0 0 10.077 3.3068 33.009-12.612 9.5721 2.7261 19.838 4.0933 30.036 4.1402 10.198-0.047 20.472-1.4141 30.062-4.1402 22.904 15.919 32.967 12.612 32.967 12.612 6.5318-16.948 2.4224-29.46 1.1764-32.561 7.6943-8.6165 12.35-19.592 12.35-33.026 0-47.257-28.073-57.663-54.794-60.709 4.3042-3.8183 8.1395-11.306 8.1395-22.785 0-16.461-0.1391-29.71-0.1391-33.765 0-3.2742 2.1601-7.1106 8.2428-5.9026 47.654 16.288 81.994 62.392 81.994 116.74 0 67.954-53.727 123.04-120 123.04" fill="#fff" fill-rule="evenodd"/></g></g></svg>
